# xmcd CD database file
#
# Track frame offsets:
#	150
#	14888
#	32136
#	46384
#	60945
#	77968
#	92063
#	100869
#	118122
#	132651
#	152389
#	165583
#	183639
#	195738
#	213904
#	227465
#	244355
#	268932
#	282433
#	303568
#
# Disc length: 4267 seconds
#
# Revision: 2
# Processed by: cddbd v1.5.2PL0 Copyright (c) Steve Scherf et al.
# Submitted via: CDex 1.51
#
DISCID=2110a914
DTITLE=Gerard Lenorman - Je vous reparlerai d'amour CD1
DYEAR=2007
DGENRE=Chanson
TTITLE0=Je vous reparlerai d'amour (In?dit)
TTITLE1=De toi 
TTITLE2=Mich?le
TTITLE3=Il
TTITLE4=Voici les cl?s
TTITLE5=Sur le chemin de la vie
TTITLE6=La f?te des fleurs
TTITLE7=Dieu est amoureux
TTITLE8=Soldats, ne tirez pas
TTITLE9=Au-del? des reves
TTITLE10=Le petit prince
TTITLE11=La mort du cygne
TTITLE12=Rien n'est plus beau
TTITLE13=Les cath?drales
TTITLE14=Si tu n'me laisses pas tomber
TTITLE15=Je n'ai jamais rencontr? Dieu
TTITLE16=Si on S'aimait Vraiment
TTITLE17=Et moi je chante
TTITLE18=Montfort-l'Amaury
TTITLE19=Si j'?tais Pr?sident
EXTD=YEAR: 2007
EXTT0=
EXTT1=
EXTT2=
EXTT3=
EXTT4=
EXTT5=
EXTT6=
EXTT7=
EXTT8=
EXTT9=
EXTT10=
EXTT11=
EXTT12=
EXTT13=
EXTT14=
EXTT15=
EXTT16=
EXTT17=
EXTT18=
EXTT19=
PLAYORDER=
